<?xml version='1.0' encoding='iso-8859-1'?>
<svg version="1.1" xmlns="http://www.w3.org/2000/svg" viewBox="0 0 490.115 490.115" xmlns:xlink="http://www.w3.org/1999/xlink" enable-background="new 0 0 490.115 490.115">
  <g>
    <g>
      <path d="m448.841,9.408c-50.1-25-91.9,5.2-104.3,32.3l-12.7,24.2c-26.4-12.8-56-20-87.3-20-110.5,0-200,89.5-200,200 0,71.8 37.9,134.8 94.7,170.1l-11.5,22c-12.1,24.3-42.7,39.6-76.1,24-28.2-14.6-38.6-49-24-76.1l-18.8-9.4c-19.8,37.5-5.2,84.4 32.4,104.2 50.1,25 91.9-5.2 104.3-32.3l11.9-22.5c26.4,12.8 55.9,20 87.2,20 110.5,0 200-89.5 200-200 0-71.8-37.8-134.7-94.6-170l12.4-23.7c12.1-24.3 42.7-39.6 76.1-24 28.2,14.6 38.6,49 24,76.1l18.8,9.4c19.7-37.5 5.1-84.4-32.5-104.3zm-299.9,388c-50.2-31.8-83.7-87.8-83.7-151.5 0-98.8 80.4-179.2 179.2-179.2 27.8,0 54.1,6.4 77.6,17.7l-30.4,57.7c-14.4-6.5-30.3-10.2-47.1-10.2-63,0-114,51-114,114 0,38.7 19.3,72.9 48.8,93.5l-30.4,58zm188.8-151.5c0,51.4-41.8,93.2-93.2,93.2s-93.2-41.8-93.2-93.2 41.8-93.2 93.2-93.2 93.2,41.8 93.2,93.2zm86,0c0,98.8-80.4,179.2-179.2,179.2-27.7,0-54-6.3-77.5-17.6l30.4-57.7c14.3,6.5 30.3,10.1 47,10.1 63,0 114-51 114-114 0-38.7-19.3-72.8-48.7-93.5l30.4-58c50.2,31.8 83.6,87.8 83.6,151.5z"/>
      <path d="m183.241,202.308c0,6.3 4.2,10.4 9.4,11.5l49.2,4.2-26.3,50.4-26-2.4c-6.3-1-10.4,4.2-11.5,9.4 0,6.3 4.2,10.4 9.4,11.5l29.2,3.1 18.8,22.9c5.5,6.7 13.3,2.4 15.6,0 4.2-3.1 5.2-10.4 1-14.6l-17.3-20.5 25.9-49.6 32,37.9c3.8,4.3 9.8,6.1 14.6,1 4.2-3.1 5.2-10.4 1-14.6l-36.9-44.6 8.9-17c3.1-5.2 1-11.5-4.2-14.6-5.2-3.1-11.5-1-14.6,4.2l-9.4,18.1-57.3-5.5c-6.3-1.2-10.4,4-11.5,9.2z"/>
    </g>
  </g>
</svg>
